{"glyphs":{":":{"x_min":0,"x_max":275,"ha":275,"o":"m 271 497 l 241 320 l 58 320 l 87 497 z m 217 177 l 188 0 l 4 0 l 34 177 z"},"$":{"x_min":0,"x_max":586,"ha":586,"o":"m 579 489 l 424 445 q 409 517 319 517 q 282 517 261 503 q 241 489 241 468 q 241 451 255 439 q 268 426 330 417 q 552 383 552 220 q 552 139 491 76 q 430 14 302 6 l 287 -89 l 179 -89 l 197 16 q 35 44 1 205 l 169 239 q 181 184 209 168 q 237 152 285 152 q 366 152 366 199 q 366 222 348 232 q 330 242 266 255 q 154 279 109 326 q 64 374 64 446 q 64 530 128 592 q 191 654 304 657 l 317 737 l 425 737 l 410 646 q 531 621 579 489 z"},"?":{"x_min":0,"x_max":513,"ha":513,"o":"m 314 212 l 163 212 q 163 299 253 374 q 315 425 326 447 q 337 470 337 489 q 337 514 321 530 q 306 547 282 547 q 217 547 202 448 l 49 481 q 80 587 147 635 q 214 682 298 682 q 398 682 464 632 q 529 581 529 489 q 529 442 504 395 q 479 347 399 300 q 369 283 344 263 q 319 243 314 212 z m 328 170 l 300 0 l 117 0 l 146 170 z"},"<":{"x_min":0,"x_max":586,"ha":586,"o":"m 524 616 l 524 479 l 237 334 l 524 189 l 524 53 l 91 277 l 91 392 z"},"'":{"x_min":0,"x_max":222,"ha":222,"o":"m 181 389 l 88 389 l 110 667 l 251 667 z"},"=":{"x_min":0,"x_max":586,"ha":586,"o":"m 550 485 l 550 361 l 64 361 l 64 485 z m 550 299 l 550 175 l 64 175 l 64 299 z"},"a":{"x_min":0,"x_max":594,"ha":594,"o":"m 516 0 l 323 0 q 321 14 321 23 q 321 48 325 82 q 267 -11 163 -11 q 92 -11 49 29 q 5 70 5 131 q 5 176 29 214 q 52 252 95 274 q 138 297 183 304 q 228 311 359 323 q 365 341 365 352 q 365 392 308 392 q 252 392 226 337 l 65 370 q 126 507 334 507 q 439 507 499 470 q 559 434 559 363 q 559 332 524 139 q 511 67 511 43 q 511 24 516 0 z m 342 234 q 208 224 208 148 q 208 107 251 107 q 279 107 307 132 q 334 157 342 234 z"},"L":{"x_min":0,"x_max":527,"ha":527,"o":"m 499 160 l 472 0 l 17 0 l 128 667 l 330 667 l 246 160 z"},"3":{"x_min":0,"x_max":586,"ha":586,"o":"m 7 178 l 164 216 q 173 172 205 150 q 236 128 271 128 q 308 128 331 152 q 355 175 355 208 q 355 272 258 272 l 193 272 l 216 410 l 280 410 q 385 410 385 481 q 385 508 364 524 q 342 541 312 541 q 240 541 213 463 l 63 513 q 91 591 157 637 q 224 684 315 684 q 423 684 496 633 q 569 582 569 493 q 569 436 535 394 q 500 353 443 340 q 544 303 544 196 q 544 109 474 45 q 404 -18 281 -18 q 61 -18 7 178 z"},";":{"x_min":0,"x_max":275,"ha":275,"o":"m 271 497 l 241 320 l 58 320 l 87 497 z m 217 177 l 190 16 l 57 -171 l -21 -171 l 86 0 l 4 0 l 34 177 z"},"J":{"x_min":0,"x_max":417,"ha":417,"o":"m 436 667 l 362 226 q 346 127 320 82 q 293 38 238 12 q 184 -13 85 -13 q 28 -13 -35 0 l -9 154 q 41 146 67 146 q 105 146 126 160 q 147 175 156 196 q 164 218 175 288 l 238 667 z"},"V":{"x_min":0,"x_max":611,"ha":611,"o":"m 681 667 l 382 0 l 188 0 l 59 667 l 263 667 l 336 236 q 343 255 399 389 l 519 667 z"},"\"":{"x_min":0,"x_max":406,"ha":406,"o":"m 181 389 l 88 389 l 111 667 l 251 667 z m 365 389 l 272 389 l 295 667 l 436 667 z"},"7":{"x_min":0,"x_max":586,"ha":586,"o":"m 604 667 l 582 535 q 477 435 404 290 q 332 146 312 0 l 82 0 q 119 170 213 310 q 307 450 396 505 l 69 505 l 113 667 z"},"S":{"x_min":0,"x_max":617,"ha":617,"o":"m 624 512 l 452 468 q 445 498 416 515 q 386 532 351 532 q 285 532 285 488 q 285 474 294 464 q 304 454 347 438 l 453 401 q 494 386 530 358 q 565 329 581 295 q 597 261 597 223 q 597 122 517 56 q 438 -10 306 -10 q 192 -10 108 36 q 24 82 -9 176 l 183 213 q 208 143 306 143 q 347 143 365 157 q 384 172 384 191 q 384 204 377 213 q 370 222 362 226 q 354 230 286 255 q 194 289 157 309 q 120 329 95 368 q 71 407 71 459 q 71 551 138 614 q 205 677 343 677 q 449 677 524 633 q 599 588 624 512 z"},"}":{"x_min":0,"x_max":293,"ha":293,"o":"m 160 255 q 116 282 116 340 q 116 351 120 375 l 146 529 q 150 554 150 563 q 150 583 135 589 q 120 595 78 595 q 71 595 58 595 l 69 665 q 72 665 103 666 q 147 667 161 667 q 233 667 263 643 q 293 620 293 566 q 293 555 289 530 l 261 362 q 258 343 258 334 q 258 289 302 281 l 292 220 q 236 212 225 148 l 197 -21 q 185 -91 146 -124 q 108 -157 22 -157 q 12 -157 -68 -155 l -57 -87 l -35 -87 q 18 -87 32 -76 q 47 -65 54 -22 l 80 135 q 88 181 104 207 q 120 232 160 255 z"},"Z":{"x_min":0,"x_max":578,"ha":578,"o":"m 544 148 l 520 0 l -25 0 l -2 137 l 345 522 l 79 522 l 104 667 l 615 667 l 593 541 l 238 148 z"},"x":{"x_min":0,"x_max":529,"ha":529,"o":"m 550 493 l 373 266 l 501 0 l 297 0 l 221 163 l 106 0 l -55 0 l 152 274 l 47 493 l 247 493 l 306 372 l 394 493 z"},")":{"x_min":0,"x_max":293,"ha":293,"o":"m 47 -157 l -62 -157 q 145 72 145 380 q 145 529 76 667 l 185 667 q 241 577 267 479 q 293 382 293 319 q 293 246 265 156 q 237 65 164 -30 q 90 -125 47 -157 z"},"&":{"x_min":0,"x_max":719,"ha":719,"o":"m 679 128 l 656 -7 q 621 -17 592 -17 q 513 -17 451 42 q 378 -18 270 -18 q 158 -18 86 38 q 15 94 15 186 q 15 243 48 297 q 81 351 199 395 q 156 462 156 514 q 156 590 211 638 q 266 686 358 686 q 449 686 506 640 q 562 594 562 525 q 562 414 422 350 l 487 259 q 513 286 541 341 q 556 371 562 382 l 716 350 q 704 315 661 249 q 619 182 576 151 q 596 126 635 126 q 646 126 679 128 z m 353 450 q 416 472 416 520 q 416 539 403 553 q 390 567 370 567 q 350 567 336 555 q 322 543 322 520 q 322 485 353 450 z m 275 285 q 216 262 216 205 q 216 170 239 148 q 261 126 299 126 q 338 126 370 151 z"},"_":{"x_min":0,"x_max":500,"ha":500,"o":"m 14 -46 l 514 -46 l 514 -163 l 14 -163 z"},"v":{"x_min":0,"x_max":498,"ha":498,"o":"m 542 493 l 298 0 l 150 0 l 24 493 l 217 493 l 273 224 l 404 493 z"},"O":{"x_min":0,"x_max":687,"ha":687,"o":"m 332 -17 q 213 -17 126 61 q 40 138 40 283 q 40 450 137 567 q 234 684 391 684 q 516 684 597 602 q 677 521 677 388 q 677 219 582 101 q 486 -17 332 -17 z m 333 139 q 385 139 412 182 q 438 226 454 311 q 470 395 470 425 q 470 476 446 502 q 422 529 383 529 q 309 529 278 425 q 248 321 248 241 q 248 139 333 139 z"},"(":{"x_min":0,"x_max":293,"ha":293,"o":"m 249 667 l 358 667 q 151 436 151 130 q 151 -20 220 -157 l 111 -157 q 55 -66 29 30 q 3 126 3 191 q 3 264 31 354 q 59 444 133 540 q 207 636 249 667 z"},"C":{"x_min":0,"x_max":633,"ha":633,"o":"m 435 258 l 614 235 q 583 125 507 56 q 431 -14 315 -14 q 189 -14 115 71 q 42 156 42 290 q 42 444 133 563 q 224 682 384 682 q 500 682 572 611 q 644 540 646 422 l 458 409 q 457 470 438 500 q 420 531 377 531 q 303 531 276 421 q 249 311 249 248 q 249 146 329 146 q 369 146 393 172 q 417 198 435 258 z"},"W":{"x_min":0,"x_max":886,"ha":886,"o":"m 946 667 l 671 0 l 497 0 l 466 399 l 419 276 l 308 0 l 144 0 l 69 667 l 255 667 l 279 365 l 284 328 l 285 308 q 287 280 288 268 q 301 310 315 345 l 447 667 l 608 667 l 639 268 q 657 324 679 378 l 792 667 z"},"A":{"x_min":0,"x_max":630,"ha":630,"o":"m 373 136 l 194 136 l 132 0 l -33 0 l 275 667 l 484 667 l 588 0 l 392 0 z m 361 274 l 334 467 l 247 274 z"},"f":{"x_min":0,"x_max":387,"ha":387,"o":"m 422 493 l 401 367 l 278 367 l 217 0 l 36 0 l 97 367 l 17 367 l 38 493 l 118 493 q 131 580 156 616 q 180 653 227 674 q 274 696 347 696 q 410 696 463 683 l 443 564 q 405 569 383 569 q 334 569 317 552 q 300 534 299 493 z"},"Q":{"x_min":0,"x_max":695,"ha":695,"o":"m 615 -7 l 611 -143 q 573 -148 544 -148 q 474 -148 428 -120 q 383 -92 374 -7 q 349 -11 326 -11 q 235 -11 171 30 q 107 70 74 140 q 41 210 41 286 q 41 440 133 559 q 225 679 385 679 q 507 679 590 599 q 673 520 673 376 q 673 269 622 169 q 571 69 471 24 q 482 -11 547 -11 z m 334 136 q 377 136 405 167 q 433 198 450 280 q 468 362 468 420 q 468 528 380 528 q 328 528 301 479 q 275 431 261 354 q 248 278 248 240 q 248 136 334 136 z"},"w":{"x_min":0,"x_max":725,"ha":725,"o":"m 760 493 l 533 0 l 394 0 l 367 283 l 250 0 l 117 0 l 35 493 l 218 493 l 248 245 l 353 493 l 496 493 l 520 245 l 629 493 z"},"-":{"x_min":0,"x_max":275,"ha":275,"o":"m 250 173 l 0 173 l 24 320 l 274 320 z"},"E":{"x_min":0,"x_max":573,"ha":573,"o":"m 534 153 l 508 0 l 17 0 l 128 667 l 607 667 l 583 521 l 297 521 l 280 416 l 520 416 l 495 271 l 255 271 l 236 153 z"},"s":{"x_min":0,"x_max":522,"ha":522,"o":"m 501 379 l 356 347 q 340 395 265 395 q 213 395 213 366 q 213 340 263 331 q 366 313 408 292 q 450 271 471 239 q 492 207 492 166 q 492 91 430 40 q 368 -11 241 -11 q 146 -11 76 26 q 6 63 -11 137 l 143 159 q 161 106 247 106 q 280 106 296 115 q 312 125 312 137 q 312 149 301 155 q 291 160 247 170 q 161 189 124 205 q 87 220 62 254 q 36 288 36 332 q 36 408 96 457 q 156 505 259 505 q 352 505 418 469 q 484 434 501 379 z"},">":{"x_min":0,"x_max":586,"ha":586,"o":"m 91 53 l 91 190 l 379 334 l 91 480 l 91 616 l 524 392 l 524 276 z"},"l":{"x_min":0,"x_max":290,"ha":290,"o":"m 309 667 l 197 0 l 10 0 l 121 667 z"},"8":{"x_min":0,"x_max":586,"ha":586,"o":"m 461 360 q 520 323 539 289 q 558 254 558 205 q 558 110 483 48 q 408 -15 275 -15 q 140 -15 76 41 q 13 97 13 169 q 13 282 145 336 q 79 389 79 473 q 79 561 149 623 q 219 684 339 684 q 452 684 516 635 q 579 586 579 514 q 579 409 461 360 z m 360 414 q 415 441 415 485 q 415 514 392 531 q 370 549 336 549 q 303 549 283 533 q 262 518 262 493 q 262 476 273 460 q 284 445 330 426 z m 254 271 q 223 261 204 238 q 185 215 185 188 q 185 156 211 137 q 237 118 280 118 q 322 118 346 136 q 369 154 369 182 q 369 217 330 235 z"},"\\":{"x_min":0,"x_max":424,"ha":424,"o":"m 105 667 l 190 667 l 396 -157 l 310 -157 z"},"e":{"x_min":0,"x_max":584,"ha":584,"o":"m 553 210 l 213 210 q 210 190 210 180 q 210 148 231 130 q 252 112 284 112 q 344 112 369 174 l 535 147 q 502 75 430 30 q 358 -15 271 -15 q 160 -15 92 48 q 23 111 23 219 q 23 337 104 421 q 185 505 316 505 q 427 505 492 440 q 558 375 558 266 q 558 242 553 210 z m 375 305 q 377 320 377 329 q 377 355 361 375 q 345 394 315 394 q 284 394 259 370 q 233 347 228 305 z"},"b":{"x_min":0,"x_max":586,"ha":586,"o":"m 312 667 l 272 432 q 311 478 341 492 q 371 507 409 507 q 480 507 523 456 q 566 406 566 307 q 566 186 498 87 q 430 -11 310 -11 q 195 -11 150 83 l 95 0 l 10 0 l 121 667 z m 229 173 q 229 146 232 135 q 236 125 250 116 q 263 106 282 106 q 307 106 325 123 q 343 139 359 195 q 375 251 375 315 q 375 389 324 389 q 274 389 252 313 z"},"%":{"x_min":0,"x_max":768,"ha":768,"o":"m 210 322 q 148 322 109 364 q 71 406 71 480 q 71 562 120 621 q 170 681 244 681 q 303 681 343 638 q 382 595 382 525 q 382 451 334 386 q 287 322 210 322 z m 215 409 q 247 409 260 456 q 272 502 272 545 q 272 593 239 593 q 207 593 194 543 q 181 494 181 456 q 181 409 215 409 z m 676 667 l 217 0 l 123 0 l 583 667 z m 556 -12 q 498 -12 456 30 q 415 72 415 141 q 415 222 465 284 q 515 346 589 346 q 632 346 664 324 q 695 303 712 269 q 728 234 728 186 q 728 114 681 51 q 634 -12 556 -12 z m 561 76 q 591 76 604 125 q 617 174 617 209 q 617 258 583 258 q 550 258 538 210 q 526 162 526 122 q 526 76 561 76 z"},"m":{"x_min":0,"x_max":851,"ha":851,"o":"m 92 493 l 260 493 l 248 417 q 302 508 399 508 q 492 508 524 417 q 572 505 672 505 q 737 505 777 469 q 816 432 816 369 q 816 349 812 321 l 758 0 l 570 0 l 620 292 q 623 315 623 327 q 623 370 583 370 q 560 370 544 352 q 528 334 519 283 l 472 0 l 290 0 l 339 292 q 343 319 343 331 q 343 353 331 363 q 318 373 304 373 q 291 373 270 361 q 250 350 240 292 l 191 0 l 10 0 z"},"#":{"x_min":0,"x_max":586,"ha":586,"o":"m 551 303 l 527 199 l 430 199 l 383 0 l 271 0 l 318 199 l 240 199 l 193 0 l 90 0 l 136 199 l 27 199 l 51 303 l 161 303 l 178 377 l 70 377 l 94 480 l 202 480 l 246 667 l 349 667 l 306 480 l 384 480 l 427 667 l 539 667 l 496 480 l 591 480 l 566 377 l 471 377 l 454 303 z m 359 377 l 281 377 l 264 303 l 343 303 z"},",":{"x_min":0,"x_max":275,"ha":275,"o":"m 217 177 l 190 16 l 57 -171 l -21 -171 l 86 0 l 4 0 l 34 177 z"},"n":{"x_min":0,"x_max":584,"ha":584,"o":"m 92 493 l 264 493 l 251 413 q 271 462 316 485 q 362 508 412 508 q 475 508 514 475 q 553 441 553 387 q 553 366 548 337 l 492 0 l 304 0 l 354 296 q 359 325 359 334 q 359 375 315 375 q 256 375 243 296 l 193 0 l 10 0 z"},"h":{"x_min":0,"x_max":588,"ha":588,"o":"m 309 667 l 270 433 q 324 507 415 507 q 467 507 510 479 q 554 450 554 378 q 554 351 547 311 l 495 0 l 308 0 l 356 292 q 363 328 363 334 q 363 374 315 374 q 294 374 280 364 q 266 354 259 341 q 252 328 246 292 l 197 0 l 10 0 l 121 667 z"},"z":{"x_min":0,"x_max":475,"ha":475,"o":"m 437 124 l 417 0 l -25 0 l -6 111 l 239 374 l 54 374 l 74 493 l 499 493 l 483 398 l 225 124 z"},"B":{"x_min":0,"x_max":646,"ha":646,"o":"m 17 0 l 128 667 l 403 667 q 479 667 526 653 q 574 640 607 598 q 639 557 639 501 q 639 440 601 397 q 562 354 497 340 q 607 301 607 195 q 607 117 554 59 q 502 0 380 0 z m 279 412 l 355 412 q 446 412 446 473 q 446 526 374 526 l 298 526 z m 234 147 l 334 147 q 380 147 398 167 q 416 187 416 209 q 416 238 396 255 q 377 272 339 272 l 255 272 z"},"K":{"x_min":0,"x_max":641,"ha":641,"o":"m 475 414 l 603 0 l 406 0 l 331 275 l 229 162 l 202 0 l 17 0 l 128 667 l 313 667 l 262 360 q 278 398 310 436 q 342 473 414 560 l 508 667 l 699 667 z"},"R":{"x_min":0,"x_max":664,"ha":664,"o":"m 512 279 l 584 0 l 387 0 l 328 253 l 249 253 l 207 0 l 17 0 l 128 667 l 419 667 q 538 667 595 615 q 652 562 652 473 q 652 330 512 279 z m 272 392 l 347 392 q 456 392 456 465 q 456 527 365 527 l 295 527 z"},"T":{"x_min":0,"x_max":501,"ha":501,"o":"m 392 515 l 306 0 l 112 0 l 199 515 l 56 515 l 82 668 l 564 668 l 539 515 z"},"P":{"x_min":0,"x_max":599,"ha":599,"o":"m 251 245 l 210 0 l 17 0 l 128 667 l 348 667 q 426 667 461 660 q 497 653 534 628 q 572 603 594 561 q 617 519 617 470 q 617 376 556 311 q 495 245 381 245 z m 275 387 l 321 387 q 426 387 426 458 q 426 522 338 522 l 297 522 z"},"|":{"x_min":0,"x_max":500,"ha":500,"o":"m 196 667 l 334 667 l 334 -167 l 196 -167 z"},"t":{"x_min":0,"x_max":361,"ha":361,"o":"m 379 493 l 358 367 l 269 367 l 239 191 q 235 166 235 159 q 235 123 281 123 q 301 123 327 128 l 306 0 q 253 -11 205 -11 q 145 -11 115 4 q 86 19 68 47 q 50 75 50 120 q 50 139 59 191 l 88 367 l 20 367 l 41 493 l 109 493 l 136 639 l 315 643 l 290 493 z"},"M":{"x_min":0,"x_max":849,"ha":849,"o":"m 861 667 l 750 0 l 562 0 l 622 355 q 631 410 646 469 q 658 518 662 543 q 656 528 645 497 q 621 433 601 388 l 429 0 l 309 0 l 263 388 q 256 439 254 497 q 252 532 250 551 q 236 413 220 312 l 167 0 l 17 0 l 128 667 l 396 667 l 432 372 q 436 335 439 320 q 446 343 459 372 l 591 667 z"},"g":{"x_min":0,"x_max":555,"ha":555,"o":"m 575 633 l 563 510 q 534 514 520 514 q 465 514 446 474 q 521 429 521 356 q 521 293 472 245 q 423 196 291 196 q 263 196 245 198 q 219 201 208 201 q 190 201 179 190 q 167 180 167 166 q 167 154 175 147 q 183 140 193 138 q 204 137 281 135 q 366 132 391 129 q 417 125 447 109 q 477 93 494 64 q 512 35 512 -1 q 512 -70 450 -122 q 389 -174 217 -174 q -42 -174 -42 -55 q -42 7 46 41 q -1 72 -1 119 q -1 201 118 236 q 50 274 50 346 q 50 411 106 458 q 163 505 297 505 q 338 505 374 498 q 395 636 525 636 q 544 636 575 633 z m 283 285 q 314 285 332 307 q 350 329 350 356 q 350 411 296 411 q 263 411 245 388 q 228 366 228 335 q 228 311 244 298 q 259 285 283 285 z m 141 0 q 113 -17 113 -34 q 113 -71 235 -71 q 295 -71 322 -64 q 349 -56 349 -34 q 349 -20 336 -15 q 324 -10 281 -8 q 158 -3 141 0 z"},"j":{"x_min":0,"x_max":295,"ha":295,"o":"m 317 682 l 292 537 l 100 537 l 124 682 z m 285 493 l 206 18 q 193 -59 170 -95 q 147 -131 99 -153 q 52 -175 -33 -175 q -69 -175 -110 -167 l -96 -32 q -77 -37 -61 -37 q -35 -37 -13 -28 q 9 -20 15 27 q 15 32 21 67 l 92 493 z"},"i":{"x_min":0,"x_max":294,"ha":294,"o":"m 315 682 l 291 537 l 100 537 l 124 682 z m 284 493 l 201 0 l 10 0 l 92 493 z"},"y":{"x_min":0,"x_max":485,"ha":485,"o":"m 529 493 l 294 -7 q 243 -117 188 -146 q 134 -176 59 -176 q 21 -176 -20 -168 l -19 -36 q 43 -42 73 -42 q 149 -42 149 -1 q 149 9 143 31 l 24 493 l 221 493 l 263 295 q 274 245 275 231 q 280 241 286 256 q 291 270 298 285 l 396 493 z"},"@":{"x_min":0,"x_max":767,"ha":767,"o":"m 578 501 l 542 281 q 537 253 537 243 q 537 228 559 228 q 599 228 632 272 q 664 317 664 379 q 664 474 593 540 q 521 606 416 606 q 304 606 226 527 q 148 447 148 330 q 148 223 219 142 q 289 61 433 61 q 522 61 623 104 l 652 23 q 553 -24 421 -24 q 240 -24 145 83 q 50 190 50 326 q 50 479 158 583 q 266 687 417 687 q 506 687 584 648 q 663 609 708 537 q 753 464 753 382 q 753 282 693 210 q 632 138 550 138 q 493 138 461 181 q 422 136 369 136 q 311 136 272 184 q 234 232 234 308 q 234 395 284 452 q 334 509 404 509 q 446 509 479 480 l 486 501 z m 379 230 q 414 230 440 266 q 467 301 467 345 q 467 379 447 397 q 427 415 405 415 q 374 415 353 385 q 332 355 332 308 q 332 274 344 252 q 357 230 379 230 z"},".":{"x_min":0,"x_max":275,"ha":275,"o":"m 217 177 l 188 0 l 4 0 l 34 177 z"},"p":{"x_min":0,"x_max":586,"ha":586,"o":"m 93 493 l 269 493 l 255 414 q 290 472 323 490 q 355 507 395 507 q 471 507 517 450 q 563 393 563 296 q 563 179 500 84 q 436 -11 330 -11 q 248 -11 207 58 l 171 -157 l -16 -157 z m 250 316 q 229 200 229 167 q 229 141 242 125 q 256 108 280 108 q 309 108 326 132 q 343 157 356 219 q 369 280 369 310 q 369 383 315 383 q 269 383 250 316 z"},"X":{"x_min":0,"x_max":606,"ha":606,"o":"m 660 667 l 417 346 l 582 0 l 370 0 l 296 170 q 279 208 273 217 q 269 210 256 192 q 254 190 245 177 l 122 0 l -58 0 l 203 356 l 53 667 l 266 667 l 326 532 q 331 521 346 481 l 481 667 z"},"*":{"x_min":0,"x_max":586,"ha":586,"o":"m 476 299 l 370 248 l 315 387 l 219 273 l 134 356 l 249 448 l 113 506 l 168 605 l 293 525 l 305 674 l 420 654 l 380 510 l 532 544 l 548 433 l 399 423 z"},"Y":{"x_min":0,"x_max":585,"ha":585,"o":"m 671 667 l 396 289 l 348 0 l 149 0 l 199 298 l 42 667 l 253 667 l 323 481 q 331 463 338 438 l 371 489 l 490 667 z"},"c":{"x_min":0,"x_max":523,"ha":523,"o":"m 346 192 l 495 155 q 455 60 390 23 q 325 -14 255 -14 q 153 -14 89 51 q 24 115 24 217 q 24 333 100 421 q 177 510 303 510 q 394 510 458 455 q 521 400 521 314 l 354 294 q 354 375 299 375 q 253 375 233 309 q 214 244 214 195 q 214 123 269 123 q 322 123 346 192 z"},"!":{"x_min":0,"x_max":316,"ha":316,"o":"m 332 667 l 208 223 l 95 223 l 105 667 z m 241 177 l 211 0 l 22 0 l 51 177 z"},"/":{"x_min":0,"x_max":424,"ha":424,"o":"m 467 667 l -13 -157 l -107 -157 l 374 667 z"},"[":{"x_min":0,"x_max":293,"ha":293,"o":"m 214 -90 l 203 -157 l -29 -157 l 109 667 l 341 667 l 330 600 l 218 600 l 103 -90 z"},"6":{"x_min":0,"x_max":586,"ha":586,"o":"m 592 501 l 431 472 q 426 498 406 518 q 385 539 354 539 q 296 539 267 464 q 239 390 237 348 q 289 425 379 425 q 453 425 506 374 q 559 323 559 236 q 559 136 487 62 q 416 -11 294 -11 q 173 -11 110 64 q 46 140 46 265 q 46 423 128 552 q 210 681 365 681 q 456 681 517 632 q 579 583 592 501 z m 298 124 q 333 124 356 151 q 378 178 378 209 q 378 250 356 269 q 333 289 306 289 q 274 289 250 263 q 225 237 225 200 q 225 163 249 143 q 272 124 298 124 z"},"r":{"x_min":0,"x_max":391,"ha":391,"o":"m 92 493 l 257 493 l 237 375 q 289 508 394 508 q 402 508 417 506 l 395 330 q 370 332 361 332 q 300 332 272 303 q 243 274 231 202 l 197 0 l 10 0 z"},"2":{"x_min":0,"x_max":586,"ha":586,"o":"m 525 159 l 498 0 l -2 0 l 24 159 q 113 207 217 281 q 321 354 351 394 q 381 434 381 464 q 381 492 363 509 q 345 525 318 525 q 246 525 213 414 l 66 473 q 140 682 335 682 q 436 682 503 624 q 569 565 569 474 q 569 389 513 320 q 456 251 255 159 z"},"{":{"x_min":0,"x_max":293,"ha":293,"o":"m 136 255 q 180 229 180 170 q 180 159 176 135 l 150 -20 q 146 -44 146 -53 q 146 -72 161 -79 q 176 -85 218 -85 q 225 -85 239 -84 l 227 -155 l 193 -155 q 149 -157 137 -157 q 62 -157 32 -133 q 2 -109 2 -56 q 2 -44 7 -21 l 35 148 q 38 167 38 176 q 38 222 -6 229 l 4 290 q 60 298 71 362 l 99 530 q 111 603 150 635 q 189 667 273 667 q 288 667 364 665 l 353 597 l 332 597 q 275 597 262 585 q 249 573 242 532 l 216 375 q 208 328 191 302 q 175 276 136 255 z"},"9":{"x_min":0,"x_max":586,"ha":586,"o":"m 26 156 l 183 191 q 188 161 210 144 q 233 128 258 128 q 309 128 341 186 q 373 245 377 319 q 325 243 235 243 q 163 243 108 295 q 53 348 53 434 q 53 530 121 605 q 188 679 310 679 q 435 679 503 603 q 571 527 571 399 q 571 243 483 114 q 395 -15 253 -15 q 168 -15 106 29 q 44 74 26 156 z m 308 379 q 342 379 365 404 q 389 429 389 468 q 389 505 368 524 q 348 543 317 543 q 280 543 258 518 q 235 493 235 457 q 235 421 256 400 q 277 379 308 379 z"}," ":{"x_min":0,"x_max":250,"ha":250,"o":""},"I":{"x_min":0,"x_max":305,"ha":305,"o":"m 317 667 l 206 0 l 17 0 l 128 667 z"},"H":{"x_min":0,"x_max":676,"ha":676,"o":"m 428 268 l 255 268 l 210 0 l 17 0 l 128 667 l 321 667 l 280 421 l 454 421 l 495 667 l 688 667 l 577 0 l 383 0 z"},"4":{"x_min":0,"x_max":586,"ha":586,"o":"m 583 289 l 560 151 l 463 151 l 438 0 l 253 0 l 278 151 l 18 151 l 43 301 l 368 688 l 553 688 l 486 289 z m 311 289 l 346 497 q 330 476 309 450 l 176 289 z"},"~":{"x_min":0,"x_max":586,"ha":586,"o":"m 139 231 l 64 282 q 96 363 131 393 q 167 423 217 423 q 250 423 321 396 q 384 374 406 374 q 448 374 475 425 l 551 378 q 494 242 392 242 q 367 242 292 269 q 227 292 209 292 q 166 292 139 231 z"},"D":{"x_min":0,"x_max":686,"ha":686,"o":"m 17 0 l 128 667 l 350 667 q 431 667 481 655 q 531 643 578 604 q 625 565 648 505 q 672 444 672 368 q 672 270 636 191 q 599 112 539 66 q 479 20 421 10 q 364 0 260 0 z m 241 149 l 286 149 q 356 149 390 169 q 424 189 448 244 q 473 298 473 375 q 473 522 361 522 l 303 522 z"},"^":{"x_min":0,"x_max":500,"ha":500,"o":"m 159 334 l 19 334 l 176 671 l 352 671 l 510 334 l 370 334 l 264 564 z"},"0":{"x_min":0,"x_max":586,"ha":586,"o":"m 272 -15 q 201 -15 154 17 q 106 49 75 113 q 44 177 44 267 q 44 437 126 560 q 208 683 340 683 q 447 683 509 604 q 570 525 570 395 q 570 238 491 112 q 412 -15 272 -15 z m 279 126 q 314 126 337 163 q 361 201 377 300 q 394 399 394 458 q 394 542 333 542 q 296 542 275 505 q 254 469 237 364 q 219 260 219 218 q 219 126 279 126 z"},"F":{"x_min":0,"x_max":534,"ha":534,"o":"m 491 399 l 466 254 l 252 254 l 210 0 l 17 0 l 128 667 l 598 667 l 572 517 l 296 517 l 277 399 z"},"`":{"x_min":0,"x_max":500,"ha":500,"o":"m 397 630 l 370 567 l 155 651 l 195 743 z"},"k":{"x_min":0,"x_max":580,"ha":580,"o":"m 614 493 l 528 416 q 457 352 428 323 l 546 0 l 359 0 l 291 210 l 206 134 l 184 0 l 10 0 l 121 667 l 295 667 l 233 298 l 269 333 q 285 351 296 361 l 441 493 z"},"u":{"x_min":0,"x_max":584,"ha":584,"o":"m 574 493 l 492 0 l 314 0 l 330 92 q 271 -13 166 -13 q 103 -13 67 21 q 31 55 31 105 q 31 127 41 185 l 92 493 l 282 493 l 234 211 q 228 171 228 163 q 228 126 262 126 q 326 126 346 249 l 387 493 z"},"]":{"x_min":0,"x_max":293,"ha":293,"o":"m 82 600 l 93 667 l 325 667 l 187 -157 l -44 -157 l -33 -90 l 78 -90 l 193 600 z"},"U":{"x_min":0,"x_max":644,"ha":644,"o":"m 665 667 l 596 256 q 579 152 550 102 q 521 52 455 21 q 389 -10 298 -10 q 180 -10 114 40 q 48 91 48 184 q 48 216 55 256 l 124 667 l 327 667 l 258 256 q 252 223 252 207 q 252 176 277 158 q 302 141 336 141 q 380 141 402 162 q 425 184 436 250 l 505 667 z"},"o":{"x_min":0,"x_max":582,"ha":582,"o":"m 268 -15 q 165 -15 94 47 q 24 108 24 214 q 24 341 106 423 q 187 505 311 505 q 424 505 491 441 q 558 377 558 283 q 558 143 472 64 q 386 -15 268 -15 z m 275 105 q 327 105 345 182 q 363 258 363 309 q 363 387 307 387 q 256 387 237 309 q 218 231 218 182 q 218 105 275 105 z"},"N":{"x_min":0,"x_max":681,"ha":681,"o":"m 693 667 l 582 0 l 434 0 l 306 256 q 254 361 240 422 q 241 407 241 399 q 241 372 234 327 l 179 0 l 17 0 l 128 667 l 308 667 l 381 512 q 457 352 480 275 q 479 295 479 305 q 479 333 492 414 l 534 667 z"},"+":{"x_min":0,"x_max":586,"ha":586,"o":"m 551 398 l 551 275 l 371 275 l 371 87 l 246 87 l 246 275 l 65 275 l 65 398 l 246 398 l 246 586 l 371 586 l 371 398 z"},"G":{"x_min":0,"x_max":681,"ha":681,"o":"m 357 365 l 651 365 l 590 0 l 493 0 l 487 73 q 431 -13 307 -13 q 216 -13 158 26 q 101 65 70 127 q 38 188 38 272 q 38 440 133 561 q 229 682 387 682 q 611 682 668 468 l 485 438 q 466 527 385 527 q 312 527 280 436 q 248 345 248 258 q 248 142 340 142 q 412 142 442 225 l 333 225 z"},"q":{"x_min":0,"x_max":583,"ha":583,"o":"m 464 -157 l 277 -157 l 314 67 q 259 -12 177 -12 q 107 -12 64 43 q 21 98 21 189 q 21 316 95 410 q 168 505 286 505 q 393 505 436 418 l 493 493 l 588 493 q 565 445 550 356 z m 355 308 q 357 322 357 333 q 357 362 343 378 q 328 395 305 395 q 255 395 234 316 q 213 237 213 177 q 213 104 263 104 q 321 104 334 187 z"},"d":{"x_min":0,"x_max":588,"ha":588,"o":"m 606 667 l 495 0 l 320 0 l 332 75 q 271 -15 186 -15 q 119 -15 70 38 q 22 91 22 189 q 22 311 89 409 q 156 507 260 507 q 350 507 381 437 l 419 667 z m 361 318 q 362 326 362 334 q 362 355 347 370 q 333 385 312 385 q 261 385 239 307 q 217 230 217 179 q 217 111 269 111 q 321 111 338 179 z"},"1":{"x_min":0,"x_max":586,"ha":586,"o":"m 486 682 l 396 146 l 567 146 l 543 0 l 28 0 l 52 146 l 214 146 l 268 463 q 219 435 132 435 q 120 435 101 437 l 125 577 q 201 578 239 593 q 276 607 303 630 q 330 653 347 682 z"},"5":{"x_min":0,"x_max":586,"ha":586,"o":"m 596 667 l 554 502 l 262 502 l 235 384 q 286 443 363 443 q 447 443 502 384 q 558 324 558 243 q 558 143 481 64 q 404 -15 275 -15 q 185 -15 114 31 q 42 77 13 162 l 177 203 q 205 138 270 138 q 317 138 343 167 q 368 196 368 231 q 368 264 345 287 q 322 311 285 311 q 234 311 203 266 l 56 300 l 145 667 z"}}}
